<svg width="7" height="10" viewBox="0 0 7 10" fill="none" xmlns="http://www.w3.org/2000/svg">
<path d="M2.20711 0.292893C1.81658 -0.0976311 1.18342 -0.0976311 0.792893 0.292893C0.402369 0.683417 0.402369 1.31658 0.792893 1.70711L2.20711 0.292893ZM5.5 5L6.20711 5.70711C6.59763 5.31658 6.59763 4.68342 6.20711 4.29289L5.5 5ZM0.792893 8.29289C0.402369 8.68342 0.402369 9.31658 0.792893 9.70711C1.18342 10.0976 1.81658 10.0976 2.20711 9.70711L0.792893 8.29289ZM0.792893 1.70711L4.79289 5.70711L6.20711 4.29289L2.20711 0.292893L0.792893 1.70711ZM4.79289 4.29289L0.792893 8.29289L2.20711 9.70711L6.20711 5.70711L4.79289 4.29289Z" fill="#003459"/>
</svg>
